<svg width="30" height="30" viewBox="0 0 30 30" fill="none" xmlns="http://www.w3.org/2000/svg">
<path d="M28.7175 1.28878C27.0332 -0.395621 24.3592 -0.43359 22.6298 1.20235C22.0978 1.70561 21.6982 2.33702 21.4744 3.02837C20.9006 4.80043 19.8625 6.49074 18.4682 7.93145L14.2981 3.76132C13.4305 2.89378 12.0188 2.89378 11.1512 3.76132L10.6962 4.21642C9.96129 4.9513 9.84914 6.0766 10.3593 6.9309L0.523696 16.7664C0.190004 17.1002 0.00619507 17.5438 0.00619507 18.0157C0.00619507 18.4877 0.190004 18.9313 0.523696 19.265L1.82425 20.5655C2.053 20.7943 2.42378 20.7942 2.65235 20.5655C2.88104 20.3368 2.8811 19.966 2.65235 19.7374L1.3518 18.4368C1.11954 18.2045 1.11954 17.8267 1.3518 17.5945L4.80744 14.139C5.09589 13.8507 5.47957 13.6922 5.88667 13.6931C6.29589 13.6938 6.68203 13.8549 6.97394 14.1469C7.27248 14.4454 7.43689 14.8423 7.43689 15.2645C7.43689 15.6866 7.27248 16.0836 6.97394 16.3821L5.80552 17.5505C4.90992 18.4461 4.90992 19.9035 5.80552 20.7991L6.64066 21.6342C7.47328 22.4668 8.82856 22.4674 9.66106 21.6364L10.8758 20.4283C11.0131 20.2911 11.1955 20.2155 11.3895 20.2155C11.5835 20.2155 11.7659 20.2911 11.9031 20.4283C12.1863 20.7115 12.1863 21.1724 11.9031 21.4556L11.274 22.0847C10.9092 22.4494 10.7084 22.9344 10.7084 23.4503C10.7084 23.9661 10.9093 24.4511 11.274 24.8159C11.6387 25.1805 12.1236 25.3814 12.6394 25.3813C12.6396 25.3813 12.6397 25.3813 12.6398 25.3813C13.1557 25.3813 13.6406 25.1803 14.0054 24.8156L14.5877 24.2332C14.7373 24.0837 14.9359 24.0013 15.1471 24.0013C15.1476 24.0013 15.1481 24.0013 15.1485 24.0013C15.3615 24.0017 15.5626 24.0858 15.7149 24.238L15.7393 24.2624C15.8815 24.4046 15.9598 24.5936 15.9598 24.7945C15.9598 24.9954 15.8816 25.1843 15.7396 25.3264L12.4115 28.6545C12.299 28.767 12.1495 28.8289 11.9903 28.8289C11.8313 28.8289 11.6817 28.767 11.5692 28.6545L8.89483 25.9802L9.07969 24.8135C9.10834 24.6329 9.0508 24.4492 8.92441 24.317C8.79785 24.1849 8.61703 24.1195 8.43516 24.1401L7.19572 24.2811L5.71699 22.8021C5.4883 22.5734 5.11751 22.5734 4.88888 22.8021C4.66019 23.0308 4.66013 23.4016 4.88888 23.6302L6.56742 25.3088C6.69363 25.435 6.87047 25.4968 7.04771 25.4766L7.80269 25.3907L7.69166 26.0916C7.6623 26.2767 7.72342 26.4648 7.85596 26.5973L10.7413 29.4826C11.075 29.8163 11.5187 30.0001 11.9906 30.0001C12.4625 30.0001 12.9062 29.8163 13.2399 29.4826L23.0747 19.6477C23.4162 19.8525 23.8079 19.9619 24.2164 19.9619C24.8107 19.9619 25.3695 19.7304 25.7898 19.3101L26.2449 18.8551C27.1125 17.9875 27.1125 16.5758 26.2449 15.7081L22.074 11.5373C23.4378 10.2057 25.1185 9.18336 27.0738 8.49951C27.6956 8.28207 28.2486 7.93408 28.7174 7.46527C30.4203 5.76236 30.4203 2.99157 28.7175 1.28878ZM16.9919 24.0743C16.8963 23.8376 16.7535 23.6203 16.5676 23.4344L16.5431 23.4099C16.1702 23.037 15.6757 22.8311 15.1506 22.8302C15.1494 22.8302 15.1482 22.8302 15.147 22.8302C14.623 22.8302 14.1304 23.0343 13.7596 23.405L13.1772 23.9874C12.8807 24.2839 12.3985 24.2839 12.1021 23.9876C11.9586 23.8441 11.8795 23.6532 11.8795 23.4503C11.8795 23.2473 11.9586 23.0563 12.1022 22.9128L12.7313 22.2837C13.4711 21.5439 13.4711 20.34 12.7313 19.6001C12.3729 19.2418 11.8964 19.0444 11.3895 19.0444C10.8826 19.0444 10.4061 19.2418 10.0489 19.599L8.83453 20.8068C8.45783 21.1827 7.84517 21.1825 7.46888 20.8061L6.63375 19.971C6.19476 19.532 6.19476 18.8177 6.63375 18.3787L7.80217 17.2103C8.87508 16.1374 8.87508 14.3916 7.80217 13.3187C7.40765 12.9242 6.91406 12.6664 6.37886 12.5677L11.1396 7.80694L12.6785 9.34579L11.5224 10.5018C11.2937 10.7305 11.2937 11.1013 11.5224 11.33C11.6368 11.4443 11.7866 11.5015 11.9365 11.5015C12.0864 11.5015 12.2363 11.4443 12.3506 11.33L13.5066 10.1739L14.9181 11.5854L11.7811 14.7224C11.5524 14.9511 11.5524 15.3218 11.7811 15.5505C11.8955 15.6648 12.0453 15.722 12.1952 15.722C12.345 15.722 12.4949 15.6648 12.6093 15.5505L15.7463 12.4135L16.6698 13.337L19.4759 16.143C19.4714 16.1472 19.4667 16.1509 19.4623 16.1553L16.9754 18.6422C16.7468 18.8709 16.7468 19.2416 16.9754 19.4703C17.0898 19.5847 17.2396 19.6418 17.3895 19.6418C17.5394 19.6418 17.6893 19.5847 17.8036 19.4703L20.2905 16.9834C20.2948 16.9791 20.2986 16.9744 20.3028 16.9699L22.1996 18.8667L16.9919 24.0743ZM25.4167 16.5363C25.8277 16.9472 25.8277 17.616 25.4167 18.0269L24.9617 18.482C24.7626 18.6811 24.4979 18.7907 24.2164 18.7907C23.9348 18.7907 23.6701 18.6811 23.471 18.482L11.5242 6.53521C11.1132 6.12424 11.1132 5.45556 11.5242 5.04459L11.9793 4.58955C12.1848 4.38406 12.4546 4.28128 12.7246 4.28128C12.9945 4.28128 13.2644 4.384 13.4699 4.58955L18.0563 9.17592C18.0563 9.17598 18.0563 9.17598 18.0564 9.17604L19.4434 10.563L25.4167 16.5363ZM27.8894 6.63711C27.546 6.98047 27.1415 7.23518 26.6872 7.39402C24.5641 8.13653 22.7338 9.25128 21.2449 10.7082L19.2974 8.76073C20.8223 7.189 21.9581 5.33638 22.5886 3.38919C22.7521 2.884 23.0447 2.42198 23.4346 2.05319C24.6999 0.856237 26.6566 0.884245 27.8893 2.11694C29.1355 3.36318 29.1355 5.39088 27.8894 6.63711Z" fill="black"/>
</svg>
