<svg width="16" height="28" viewBox="0 0 16 28" fill="none" xmlns="http://www.w3.org/2000/svg">
<path d="M15.6059 15.6794L8.51911 0.33138C8.38797 0.0463131 8.0516 -0.0791166 7.76083 0.0520144C7.6354 0.109028 7.53847 0.205951 7.48146 0.33138L0.394687 15.6794C0.314868 15.8618 0.32627 16.0671 0.434596 16.2381C0.53722 16.4035 0.719663 16.5061 0.913509 16.5118H7.43015V17.7661H5.77106C5.45748 17.7661 5.20662 18.017 5.20662 18.3305C5.20662 18.3305 5.20662 18.3305 5.20662 18.3362V25.2064C5.20662 26.7514 6.45522 28 8.00028 28C9.54535 28 10.7939 26.7514 10.7939 25.2064V18.3305C10.7939 18.017 10.5431 17.7604 10.2295 17.7604C10.2295 17.7604 10.2295 17.7604 10.2238 17.7604H8.57042V16.5061H15.0871C15.412 16.5004 15.6629 16.2324 15.6572 15.9075C15.6572 15.8276 15.6401 15.7535 15.6059 15.6794ZM9.65367 25.2007C9.65367 26.1129 8.9125 26.854 8.00028 26.8597C7.08807 26.8597 6.34689 26.1186 6.34689 25.2064V25.0581H9.65367V25.2007ZM9.65367 18.9007V23.9179H6.34689V18.9007H9.65367ZM8.57042 15.3658V12.441C8.57042 12.1275 8.31386 11.8709 8.00028 11.8709C7.68671 11.8709 7.43015 12.1275 7.43015 12.441V15.3658H1.80292L8.00028 1.94486L14.1976 15.3658H8.57042Z" fill="black"/>
</svg>
