<svg width="40" height="40" viewBox="0 0 40 40" fill="none" xmlns="http://www.w3.org/2000/svg">
<g id="Group 21">
<path id="Vector" d="M20 40C31.0457 40 40 31.0457 40 20C40 8.95431 31.0457 0 20 0C8.95431 0 0 8.95431 0 20C0 31.0457 8.95431 40 20 40Z" fill="url(#paint0_linear_10897_351)"/>
<path id="Vector_2" d="M13.3335 21.2607L15.7152 27.8667C15.7152 27.8667 16.0129 28.4848 16.3318 28.4848C16.6506 28.4848 21.3931 23.5408 21.3931 23.5408L26.6668 13.3333L13.4185 19.5555L13.3335 21.2607Z" fill="#C8DAEA"/>
<path id="Vector_3" d="M16.8311 23.0303L16.3713 27.831C16.3713 27.831 16.1789 29.302 17.6758 27.831C19.1728 26.36 20.6057 25.2257 20.6057 25.2257" fill="#A9C6D8"/>
<path id="Vector_4" d="M13.7001 21.7598L8.90961 20.192C8.90961 20.192 8.33709 19.9587 8.52144 19.4296C8.55939 19.3205 8.63594 19.2277 8.86495 19.0681C9.9264 18.325 28.5115 11.6152 28.5115 11.6152C28.5115 11.6152 29.0363 11.4375 29.3458 11.5557C29.4223 11.5795 29.4912 11.6233 29.5454 11.6826C29.5996 11.7419 29.6371 11.8147 29.6541 11.8933C29.6876 12.0323 29.7016 12.1752 29.6957 12.3181C29.6942 12.4416 29.6793 12.5561 29.668 12.7357C29.5548 14.5702 26.1675 28.2616 26.1675 28.2616C26.1675 28.2616 25.9648 29.0628 25.2387 29.0902C25.0602 29.096 24.8825 29.0656 24.716 29.0009C24.5494 28.9362 24.3976 28.8385 24.2695 28.7136C22.8446 27.4825 17.9196 24.1579 16.8313 23.4267C16.8068 23.4099 16.7861 23.388 16.7707 23.3625C16.7553 23.337 16.7455 23.3085 16.742 23.2788C16.7268 23.2018 16.8102 23.1063 16.8102 23.1063C16.8102 23.1063 25.3859 15.4496 25.6141 14.6458C25.6318 14.5835 25.565 14.5528 25.4754 14.5801C24.9058 14.7906 15.032 21.0538 13.9422 21.745C13.8638 21.7689 13.7809 21.7739 13.7001 21.7598Z" fill="white"/>
</g>
<defs>
<linearGradient id="paint0_linear_10897_351" x1="20" y1="40" x2="20" y2="0" gradientUnits="userSpaceOnUse">
<stop stop-color="#1D93D2"/>
<stop offset="1" stop-color="#38B0E3"/>
</linearGradient>
</defs>
</svg>
