<svg width="40" height="40" viewBox="0 0 40 40" fill="none" xmlns="http://www.w3.org/2000/svg">
<g id="Group">
<path id="Vector" d="M0 40L3.44 29.6807C1.69448 26.7448 0.689655 23.3186 0.689655 19.6552C0.689655 8.8 9.48966 0 20.3448 0C31.2 0 40 8.8 40 19.6552C40 30.5103 31.2 39.3103 20.3448 39.3103C17.0421 39.3103 13.9317 38.4917 11.2 37.0531L0 40Z" fill="#2CB742"/>
<path id="Vector_2" d="M30.5241 24.8469C29.7929 23.4652 27.0968 21.8852 27.0968 21.8852C26.4868 21.5375 25.7507 21.4986 25.4029 22.1186C25.4029 22.1186 24.5268 23.1691 24.304 23.3202C23.2863 24.0097 22.3435 23.983 21.3918 23.0313L19.1801 20.8197L16.9685 18.6081C16.0168 17.6564 15.9901 16.7137 16.6796 15.6959C16.8307 15.4731 17.8812 14.597 17.8812 14.597C18.5012 14.2487 18.4624 13.5132 18.1146 12.9032C18.1146 12.9032 16.5346 10.2071 15.1529 9.476C14.5651 9.16489 13.8435 9.27378 13.3735 9.74377L12.3968 10.7204C9.29844 13.8187 10.824 17.3164 13.9223 20.4147L16.754 23.2463L19.5857 26.078C22.684 29.1762 26.1818 30.7018 29.2802 27.6035L30.2568 26.6268C30.7268 26.1557 30.8352 25.4341 30.5241 24.8469Z" fill="white"/>
</g>
</svg>
