<svg width="33" height="34" viewBox="0 0 33 34" fill="none" xmlns="http://www.w3.org/2000/svg">
<g clip-path="url(#clip0)">
<path d="M30.6212 7.59419C30.161 5.59762 28.384 4.18161 26.3308 4.18161H26.1254V1.93725C26.1254 1.14428 25.4882 0.5 24.6953 0.5H24.6882H3.70299C2.91003 0.5 2.26575 1.1372 2.26575 1.93017V1.93725V7.82783C2.26575 8.62787 2.90295 9.27215 3.70299 9.27923H24.6882C25.4882 9.27215 26.1254 8.62787 26.1254 7.82783V5.59762H26.3308C27.9804 5.59762 29.3114 6.92866 29.3185 8.57831C29.3185 9.96599 28.3627 11.1767 27.0104 11.4882L16.2984 13.9733C14.6346 14.3485 13.4522 15.8283 13.4522 17.5275V19.2621H11.1795C10.7901 19.2691 10.4786 19.5878 10.4786 19.9772V29.7547C10.4715 31.815 12.1424 33.4929 14.2027 33.5C14.2098 33.5 14.2168 33.5 14.231 33.5C16.2984 33.5 17.9763 31.822 17.9834 29.7547V19.9772C17.9692 19.5807 17.6506 19.2621 17.2542 19.2621H14.8682V17.5275C14.8753 16.4796 15.5974 15.5805 16.617 15.3468L27.322 12.8617C29.6867 12.3166 31.1664 9.95891 30.6212 7.59419ZM24.7094 7.83491C24.7094 7.84907 24.6953 7.86323 24.6811 7.86323H3.71007C3.69591 7.86323 3.68175 7.84907 3.68175 7.83491V1.94433C3.68175 1.93017 3.69591 1.91601 3.71007 1.91601H24.6811C24.6953 1.91601 24.7094 1.93017 24.7094 1.94433V7.83491ZM16.5674 29.7547C16.5603 31.0432 15.5125 32.0911 14.2168 32.084C13.6009 32.084 13.0132 31.8362 12.5743 31.3972C12.1353 30.9583 11.8946 30.3706 11.8946 29.7547V29.1033H16.5674V29.7547ZM16.5674 20.6781V27.6873H11.8946V20.6781H16.5674Z" fill="black"/>
</g>
<defs>
<clipPath id="clip0">
<rect width="33" height="33" fill="white" transform="translate(0 0.5)"/>
</clipPath>
</defs>
</svg>
