<svg width="31" height="32" viewBox="0 0 31 32" fill="none" xmlns="http://www.w3.org/2000/svg">
<path d="M23.5512 6.32068C22.8055 6.28096 22.0584 6.36255 21.339 6.56227L21.2905 6.57631C19.4074 7.11427 17.4585 7.38719 15.5 7.38722C12.8942 7.38722 10.3959 6.31251 7.82629 6.31251C6.23595 6.31336 4.69518 6.86604 3.46691 7.87625L4.08328 8.62377C5.13792 7.75647 6.46083 7.28198 7.82629 7.28126C9.04043 7.28126 10.2072 7.74487 11.3878 7.96907C12.7434 8.22632 14.1202 8.35586 15.5 8.35597C17.5489 8.35588 19.5879 8.07026 21.558 7.50734L21.6064 7.49329C25.1888 6.45861 29.0625 8.94902 29.0625 12.7924V14.4397C29.0628 15.7948 28.5637 17.1025 27.6606 18.1127C26.7574 19.123 25.5136 19.7649 24.1669 19.9158C24.0785 19.5393 23.8795 19.1979 23.5953 18.9356C23.3112 18.6733 22.9551 18.502 22.5728 18.4439C22.1905 18.3857 21.7995 18.4434 21.4503 18.6094C21.101 18.7754 20.8095 19.0422 20.6132 19.3754C20.5773 19.4359 18.5273 18.9971 17.9158 18.9324C16.9154 18.8291 15.909 18.7966 14.904 18.8351C12.509 18.9212 10.19 19.9513 7.82629 19.9513C6.26449 19.9513 4.76668 19.3308 3.66232 18.2265C2.55797 17.1221 1.93753 15.6243 1.9375 14.0625V13.17C1.93817 11.8046 2.41267 10.4817 3.28001 9.42704L2.53249 8.81086C1.5223 10.0391 0.969619 11.5798 0.96875 13.17V20.7676C0.968758 21.8289 1.21512 22.8758 1.68844 23.8257C2.16177 24.7756 2.84913 25.6027 3.69641 26.2419C4.5437 26.8811 5.52778 27.3148 6.57119 27.509C7.61459 27.7033 8.68884 27.6526 9.70936 27.3611C12.726 26.4996 15.8768 26.2616 18.9814 26.751C19.9488 26.9035 20.9245 27.1506 21.8816 27.406C22.7394 27.6348 23.635 27.6848 24.513 27.5531C25.391 27.4214 26.2325 27.1107 26.9854 26.6403C27.7383 26.1699 28.3866 25.5499 28.89 24.8186C29.3934 24.0873 29.7411 23.2605 29.9117 22.3892L28.9611 22.2042C28.8159 22.9451 28.52 23.6482 28.0918 24.27C27.6636 24.8918 27.1122 25.4191 26.4719 25.819C25.8316 26.219 25.1159 26.4831 24.3693 26.5951C23.6226 26.7071 22.861 26.6645 22.1315 26.47C19.0517 25.6488 15.9496 25.2959 12.773 25.72C12.5034 25.756 12.2346 25.797 11.9665 25.843C10.5913 26.0792 9.23001 26.6563 7.82617 26.6563C6.26494 26.6545 4.76816 26.0335 3.6642 24.9296C2.56024 23.8256 1.93926 22.3288 1.9375 20.7676V17.5819C2.22841 18.0659 2.57761 18.5125 2.97727 18.9115C3.61256 19.5503 4.36825 20.0567 5.20058 20.4015C6.03292 20.7463 6.92537 20.9225 7.82629 20.92C9.82736 20.92 11.8052 20.0542 13.8092 19.8742C15.9971 19.6781 18.2022 19.8245 20.345 20.3081C20.3446 20.3252 20.3438 20.3422 20.3438 20.3594C20.3441 20.8264 20.513 21.2775 20.8196 21.6298C21.1261 21.9821 21.5495 22.2119 22.012 22.2768C22.4744 22.3417 22.9448 22.2374 23.3364 21.983C23.7281 21.7287 24.0147 21.3415 24.1436 20.8926C25.6834 20.7551 27.1223 20.0681 28.1974 18.9572C28.5247 18.6209 28.8148 18.2503 29.0625 17.8517V21.1451H30.0312V12.7922C30.0267 11.0765 29.3451 9.43187 28.1347 8.21586C26.9777 7.05724 25.2525 6.40163 23.5512 6.32068ZM22.2812 21.3281C22.0896 21.3281 21.9024 21.2713 21.743 21.1649C21.5837 21.0584 21.4596 20.9071 21.3862 20.7301C21.3129 20.5531 21.2937 20.3583 21.3311 20.1704C21.3685 19.9825 21.4608 19.8099 21.5962 19.6744C21.7317 19.5389 21.9043 19.4466 22.0923 19.4092C22.2802 19.3719 22.475 19.3911 22.652 19.4644C22.829 19.5377 22.9803 19.6619 23.0867 19.8212C23.1932 19.9805 23.25 20.1678 23.25 20.3594C23.2497 20.6162 23.1475 20.8624 22.9659 21.0441C22.7843 21.2257 22.5381 21.3278 22.2812 21.3281Z" fill="black"/>
<path d="M4.35938 23.75C4.35938 24.0374 4.4446 24.3183 4.60427 24.5573C4.76394 24.7963 4.99089 24.9825 5.25641 25.0925C5.52194 25.2025 5.81411 25.2313 6.09599 25.1752C6.37787 25.1191 6.63679 24.9807 6.84001 24.7775C7.04324 24.5743 7.18163 24.3154 7.2377 24.0335C7.29377 23.7516 7.265 23.4594 7.15501 23.1939C7.04503 22.9284 6.85878 22.7014 6.61981 22.5418C6.38085 22.3821 6.0999 22.2969 5.8125 22.2969C5.42724 22.2973 5.0579 22.4506 4.78548 22.723C4.51306 22.9954 4.35982 23.3647 4.35938 23.75ZM6.29687 23.75C6.29687 23.8458 6.26847 23.9394 6.21524 24.0191C6.16202 24.0988 6.08637 24.1608 5.99786 24.1975C5.90935 24.2342 5.81196 24.2438 5.718 24.2251C5.62404 24.2064 5.53774 24.1602 5.47 24.0925C5.40225 24.0248 5.35612 23.9385 5.33743 23.8445C5.31874 23.7505 5.32833 23.6531 5.365 23.5646C5.40166 23.4761 5.46374 23.4005 5.5434 23.3473C5.62305 23.294 5.7167 23.2656 5.8125 23.2656C5.94092 23.2658 6.06404 23.3168 6.15484 23.4077C6.24565 23.4985 6.29673 23.6216 6.29687 23.75Z" fill="black"/>
<path d="M8.71875 11.1563C8.71875 10.7731 8.60512 10.3985 8.39222 10.0798C8.17933 9.76121 7.87673 9.51288 7.5227 9.36623C7.16867 9.21959 6.7791 9.18122 6.40326 9.25598C6.02743 9.33074 5.6822 9.51527 5.41123 9.78623C5.14027 10.0572 4.95574 10.4024 4.88098 10.7783C4.80622 11.1541 4.84459 11.5437 4.99123 11.8977C5.13788 12.2517 5.38621 12.5543 5.70483 12.7672C6.02345 12.9801 6.39805 13.0938 6.78125 13.0938C7.29493 13.0932 7.78741 12.8889 8.15063 12.5256C8.51386 12.1624 8.71817 11.6699 8.71875 11.1563ZM6.78125 12.125C6.58965 12.125 6.40235 12.0682 6.24304 11.9617C6.08373 11.8553 5.95957 11.704 5.88624 11.527C5.81292 11.35 5.79374 11.1552 5.83112 10.9673C5.86849 10.7793 5.96076 10.6067 6.09624 10.4712C6.23172 10.3358 6.40434 10.2435 6.59226 10.2061C6.78018 10.1687 6.97496 10.1879 7.15198 10.2612C7.32899 10.3346 7.48029 10.4587 7.58674 10.618C7.69318 10.7774 7.75 10.9647 7.75 11.1563C7.7497 11.4131 7.64753 11.6593 7.46592 11.8409C7.28431 12.0225 7.03809 12.1247 6.78125 12.125Z" fill="black"/>
<path d="M9.20312 15.5156C9.20312 15.803 9.28835 16.084 9.44802 16.3229C9.60769 16.5619 9.83464 16.7482 10.1002 16.8581C10.3657 16.9681 10.6579 16.9969 10.9397 16.9408C11.2216 16.8848 11.4805 16.7464 11.6838 16.5431C11.887 16.3399 12.0254 16.081 12.0815 15.7991C12.1375 15.5172 12.1087 15.2251 11.9988 14.9595C11.8888 14.694 11.7025 14.4671 11.4636 14.3074C11.2246 14.1477 10.9437 14.0625 10.6563 14.0625C10.271 14.0629 9.90165 14.2162 9.62923 14.4886C9.35681 14.761 9.20357 15.1304 9.20312 15.5156ZM10.6563 15.0312C10.7521 15.0312 10.8457 15.0597 10.9254 15.1129C11.005 15.1661 11.0671 15.2418 11.1038 15.3303C11.1404 15.4188 11.15 15.5162 11.1313 15.6101C11.1126 15.7041 11.0665 15.7904 10.9988 15.8581C10.931 15.9259 10.8447 15.972 10.7507 15.9907C10.6568 16.0094 10.5594 15.9998 10.4709 15.9631C10.3824 15.9265 10.3067 15.8644 10.2535 15.7847C10.2003 15.7051 10.1719 15.6114 10.1719 15.5156C10.172 15.3872 10.2231 15.2641 10.3139 15.1733C10.4047 15.0825 10.5278 15.0314 10.6563 15.0312Z" fill="black"/>
<path d="M26.6406 10.6719C26.6406 10.2887 26.527 9.91408 26.3141 9.59546C26.1012 9.27684 25.7986 9.0285 25.4446 8.88186C25.0905 8.73521 24.701 8.69685 24.3251 8.7716C23.9493 8.84636 23.6041 9.03089 23.3331 9.30186C23.0621 9.57282 22.8776 9.91805 22.8029 10.2939C22.7281 10.6697 22.7665 11.0593 22.9131 11.4133C23.0598 11.7674 23.3081 12.07 23.6267 12.2828C23.9453 12.4957 24.3199 12.6094 24.7031 12.6094C25.2168 12.6088 25.7093 12.4045 26.0725 12.0413C26.4357 11.678 26.64 11.1856 26.6406 10.6719ZM24.7031 11.6406C24.5115 11.6406 24.3242 11.5838 24.1649 11.4774C24.0056 11.3709 23.8814 11.2196 23.8081 11.0426C23.7348 10.8656 23.7156 10.6708 23.753 10.4829C23.7904 10.295 23.8826 10.1223 24.0181 9.98687C24.1536 9.85138 24.3262 9.75912 24.5141 9.72174C24.702 9.68436 24.8968 9.70355 25.0738 9.77687C25.2509 9.85019 25.4022 9.97436 25.5086 10.1337C25.6151 10.293 25.6719 10.4803 25.6719 10.6719C25.6716 10.9287 25.5694 11.1749 25.3878 11.3565C25.2062 11.5382 24.96 11.6403 24.7031 11.6406Z" fill="black"/>
<path d="M22.7656 15.0313C22.7656 14.7439 22.6804 14.4629 22.5207 14.2239C22.3611 13.985 22.1341 13.7987 21.8686 13.6887C21.6031 13.5788 21.3109 13.55 21.029 13.606C20.7471 13.6621 20.4882 13.8005 20.285 14.0037C20.0818 14.207 19.9434 14.4659 19.8873 14.7478C19.8312 15.0296 19.86 15.3218 19.97 15.5873C20.08 15.8529 20.2662 16.0798 20.5052 16.2395C20.7442 16.3992 21.0251 16.4844 21.3125 16.4844C21.6978 16.4839 22.0671 16.3307 22.3395 16.0583C22.6119 15.7859 22.7652 15.4165 22.7656 15.0313ZM20.8281 15.0313C20.8281 14.9355 20.8565 14.8418 20.9098 14.7621C20.963 14.6825 21.0386 14.6204 21.1271 14.5837C21.2156 14.5471 21.313 14.5375 21.407 14.5562C21.501 14.5749 21.5873 14.621 21.655 14.6887C21.7227 14.7565 21.7689 14.8428 21.7876 14.9368C21.8063 15.0307 21.7967 15.1281 21.76 15.2166C21.7233 15.3051 21.6613 15.3808 21.5816 15.434C21.5019 15.4872 21.4083 15.5156 21.3125 15.5156C21.1841 15.5155 21.061 15.4644 20.9702 15.3736C20.8793 15.2828 20.8283 15.1597 20.8281 15.0313Z" fill="black"/>
<path d="M15.9844 10.1875H16.9531V11.1562H15.9844V10.1875Z" fill="black"/>
<path d="M18.4062 12.125H19.375V13.0938H18.4062V12.125Z" fill="black"/>
<path d="M6.29688 16H7.26562V16.9688H6.29688V16Z" fill="black"/>
<path d="M24.7031 16.4844H25.6719V17.4531H24.7031V16.4844Z" fill="black"/>
<path d="M15.9844 21.8125H16.9531V22.7812H15.9844V21.8125Z" fill="black"/>
<path d="M8.71875 21.8125H9.6875V22.7812H8.71875V21.8125Z" fill="black"/>
<path d="M25.1875 22.7812H26.1562V23.75H25.1875V22.7812Z" fill="black"/>
<path d="M10.1719 10.6719H11.1406V11.6406H10.1719V10.6719Z" fill="black"/>
</svg>
